<svg xmlns="http://www.w3.org/2000/svg" viewBox="0 0 800 500" preserveAspectRatio="xMidYMid meet">
  <defs>
    <linearGradient id="bg" x1="0%" y1="0%" x2="100%" y2="100%">
      <stop offset="0%" stop-color="#52b788" />
      <stop offset="100%" stop-color="#1a3a2a" />
    </linearGradient>
    <linearGradient id="plate" x1="0%" y1="0%" x2="100%" y2="100%">
      <stop offset="0%" stop-color="#fdf6ec" />
      <stop offset="100%" stop-color="#f4a942" />
    </linearGradient>
  </defs>
  <rect width="800" height="500" rx="40" ry="40" fill="url(#bg)" />
  <g transform="translate(120 90)">
    <ellipse cx="270" cy="260" rx="255" ry="130" fill="url(#plate)" opacity="0.95" />
    <path d="M120 220 C155 180 220 170 270 200 C325 235 365 225 390 210" fill="none" stroke="#e07b31" stroke-width="18" stroke-linecap="round" />
    <path d="M180 165 C210 140 250 130 290 145 C330 160 360 170 390 150" fill="none" stroke="#1a3a2a" stroke-width="14" stroke-linecap="round" />
    <circle cx="200" cy="190" r="24" fill="#f4a942" />
    <circle cx="240" cy="210" r="18" fill="#52b788" />
    <circle cx="300" cy="180" r="22" fill="#f4a942" />
    <circle cx="340" cy="220" r="16" fill="#52b788" />
    <path d="M160 120 L160 80 C160 70 168 62 178 62 H210 C220 62 228 70 228 80 L228 120" fill="#ffffff" opacity="0.18" />
    <path d="M220 80 Q250 50 280 80" fill="none" stroke="#fdf6ec" stroke-width="12" stroke-linecap="round" />
  </g>
  <text x="50" y="460" font-family="DM Sans, sans-serif" font-size="24" fill="#fdf6ec">AnnTript Foods</text>
</svg>